<?xml version="1.0" encoding="iso-8859-1"?>
<!-- Generator: Adobe Illustrator 19.0.0, SVG Export Plug-In . SVG Version: 6.00 Build 0)  -->
<svg version="1.1" id="Capa_1" xmlns="http://www.w3.org/2000/svg" xmlns:xlink="http://www.w3.org/1999/xlink" x="0px" y="0px"
	 viewBox="0 0 367.478 367.478" style="enable-background:new 0 0 367.478 367.478;" xml:space="preserve">
<g>
	<g>
		<path d="M351.259,77.499l-61.28-61.28c-9.215-9.789-21.924-15.54-35.36-16c-13.263,0.408-25.793,6.182-34.72,16l-203.68,203.6
			c-25.84,25.84-16.96,53.2,0,70.16l61.28,61.28c8.927,9.818,21.457,15.592,34.72,16c13.436-0.46,26.145-6.211,35.36-16
			l203.68-203.6C377.099,121.819,368.219,94.459,351.259,77.499z M339.979,136.299l-203.68,203.68
			c-6.17,6.863-14.789,11.029-24,11.6c-9.057-0.551-17.508-4.734-23.44-11.6l-61.28-61.28c-10.8-10.8-19.6-27.92,0-47.52
			l203.6-203.68c5.885-6.907,14.307-11.147,23.36-11.76c9.211,0.571,17.83,4.737,24,11.6l61.28,61.28
			C350.779,99.659,359.739,116.699,339.979,136.299z"/>
	</g>
</g>
<g>
	<g>
		<path d="M274.422,152.342c-0.014-0.014-0.028-0.028-0.042-0.042l-59.2-59.2c-6.857-6.522-17.623-6.522-24.48,0l-97.6,97.6
			c-6.76,6.737-6.779,17.678-0.042,24.438c0.014,0.014,0.028,0.028,0.042,0.042l59.2,59.2c6.737,6.76,17.678,6.779,24.438,0.042
			c0.014-0.014,0.028-0.028,0.042-0.042l97.6-97.6C281.139,170.043,281.158,159.102,274.422,152.342z M263.176,165.102
			l-97.677,97.997c-0.353,0.508-1.051,0.634-1.559,0.281c-0.11-0.076-0.205-0.172-0.281-0.281l-59.28-59.28
			c-0.104-0.284-0.104-0.596,0-0.88c-0.125-0.308-0.125-0.652,0-0.96l97.6-97.6c0.492-0.508,1.302-0.522,1.81-0.03
			c0.01,0.01,0.02,0.02,0.03,0.03l59.28,59.28c0.104,0.284,0.104,0.596,0,0.88C263.172,164.72,263.189,164.911,263.176,165.102z"/>
	</g>
</g>
<g>
</g>
<g>
</g>
<g>
</g>
<g>
</g>
<g>
</g>
<g>
</g>
<g>
</g>
<g>
</g>
<g>
</g>
<g>
</g>
<g>
</g>
<g>
</g>
<g>
</g>
<g>
</g>
<g>
</g>
</svg>
