<?xml version="1.0" encoding="iso-8859-1"?>
<!-- Generator: Adobe Illustrator 19.0.0, SVG Export Plug-In . SVG Version: 6.00 Build 0)  -->
<svg version="1.1" id="Capa_1" xmlns="http://www.w3.org/2000/svg" xmlns:xlink="http://www.w3.org/1999/xlink" x="0px" y="0px"
	 viewBox="0 0 363.684 363.684" style="enable-background:new 0 0 363.684 363.684;" xml:space="preserve">
<g>
	<g>
		<path d="M347.71,15.85L347.71,15.85c-20.962-20.965-54.95-20.967-75.915-0.005c-0.002,0.002-0.003,0.003-0.005,0.005l-58.56,58.56
			l-8-8c-7.662-7.294-19.698-7.294-27.36,0l-24.64,24.24c-7.577,7.544-7.605,19.802-0.061,27.379c0.02,0.02,0.041,0.041,0.061,0.061
			l11.28,11.28L39.71,253.85c-0.837,0.844-1.49,1.852-1.92,2.96l-37.2,94.88c-1.739,4.491,0.493,9.541,4.984,11.28
			c2.026,0.784,4.271,0.784,6.296,0l94.64-37.12c1.106-0.434,2.113-1.087,2.96-1.92l124.8-124.8l11.44,11.2
			c7.544,7.577,19.802,7.605,27.379,0.061c0.02-0.02,0.041-0.041,0.061-0.061l24.48-24.48c7.557-7.586,7.557-19.854,0-27.44l-8-8
			l58.56-58.56C369.034,70.727,368.819,36.709,347.71,15.85z M98.43,309.85l-74.24,29.6l29.52-74.32l123.12-123.28l44.88,44.96
			L98.43,309.85z M285.21,173.667c-0.043,0.064-0.09,0.125-0.14,0.184h0l-24.56,24c-0.545,0.751-1.595,0.918-2.346,0.374
			c-0.143-0.104-0.27-0.23-0.374-0.374l-92.08-92.08c-0.751-0.748-0.753-1.964-0.005-2.715c0.002-0.002,0.003-0.003,0.005-0.005
			l24-24.48c0.749-0.751,1.964-0.753,2.715-0.005c0.002,0.002,0.003,0.003,0.005,0.005l14.32,14.4l63.6,63.6l14.32,14.32
			C285.586,171.508,285.828,172.751,285.21,173.667z M337.758,77.402c-0.728,0.796-1.492,1.56-2.288,2.288l-58.56,58.56l-51.2-51.2
			l58.56-58.56c13.507-14.77,36.43-15.795,51.2-2.288C350.241,39.709,351.265,62.632,337.758,77.402z"/>
	</g>
</g>
<g>
</g>
<g>
</g>
<g>
</g>
<g>
</g>
<g>
</g>
<g>
</g>
<g>
</g>
<g>
</g>
<g>
</g>
<g>
</g>
<g>
</g>
<g>
</g>
<g>
</g>
<g>
</g>
<g>
</g>
</svg>
