<?xml version="1.0" encoding="iso-8859-1"?>
<!-- Generator: Adobe Illustrator 19.0.0, SVG Export Plug-In . SVG Version: 6.00 Build 0)  -->
<svg version="1.1" id="Capa_1" xmlns="http://www.w3.org/2000/svg" xmlns:xlink="http://www.w3.org/1999/xlink" x="0px" y="0px"
	 viewBox="0 0 431.6 431.6" style="enable-background:new 0 0 431.6 431.6;" xml:space="preserve">
<g>
	<g>
		<path d="M372.32,165.76l-48-48V88.64h7.28c9.321,0.178,17.021-7.234,17.199-16.555c0.001-0.028,0.001-0.056,0.001-0.085V17.2
			c0.177-9.321-7.236-17.02-16.557-17.197C332.162,0.001,332.081,0,332,0H100c-9.323,0-16.88,7.557-16.88,16.88V72
			c0,9.323,7.557,16.88,16.88,16.88h7.28V118l-48,48c-1.478,1.49-2.311,3.501-2.32,5.6v202.24c0,42.64,29.84,57.76,57.76,57.76
			h202.16c27.92,0,57.76-15.2,57.76-57.76V171.36C374.631,169.261,373.798,167.25,372.32,165.76z M100.32,72.88
			c-0.455-0.042-0.802-0.424-0.8-0.88V17.2c-0.177-0.453,0.047-0.963,0.499-1.14c0.096-0.037,0.198-0.058,0.301-0.06h232
			c0.486,0,0.88,0.394,0.88,0.88V72c0.047,0.439-0.272,0.833-0.711,0.88c-0.056,0.006-0.113,0.006-0.169,0H100.32z M358.72,374.08
			c0,37.76-29.2,41.76-41.76,41.76H115.44c-12.56,0-41.76-4.08-41.76-41.76V174.64l48-48c1.478-1.49,2.311-3.501,2.32-5.6v-32
			h184.64v32c0.009,2.099,0.842,4.11,2.32,5.6l48,48L358.72,374.08z"/>
	</g>
</g>
<g>
	<g>
		<path d="M307.6,178.48H124.72c-9.323,0-16.88,7.557-16.88,16.88v161.6c0,9.323,7.557,16.88,16.88,16.88H307.6
			c9.323,0,16.88-7.557,16.88-16.88v-161.6C324.48,186.037,316.923,178.48,307.6,178.48z M308.72,356.96
			c0,0.486-0.394,0.88-0.88,0.88H124.72c-0.486,0-0.88-0.394-0.88-0.88v-161.6c0-0.486,0.394-0.88,0.88-0.88H307.6
			c0.486,0,0.88,0.394,0.88,0.88h0.24V356.96z"/>
	</g>
</g>
<g>
	<g>
		<path d="M272.24,245.68c-8.713-8.344-21.464-10.9-32.72-6.56c-5.144-24.157-28.896-39.57-53.053-34.426
			s-39.57,28.896-34.426,53.053c3.448,16.192,15.558,29.154,31.479,33.693l-4.64,4.64c-12.322,11.404-13.065,30.638-1.661,42.96
			c11.404,12.322,30.638,13.065,42.96,1.661c0.575-0.532,1.129-1.086,1.661-1.661l50.4-50.4
			C284.091,276.772,284.091,257.548,272.24,245.68z M176.16,228.64h-0.64c9.17-8.735,22.908-10.606,34.08-4.64l-38.56,38.56
			C164.897,251.393,166.995,237.496,176.16,228.64z M182.32,273.84l-0.24,0l38.88-38.64c2.471,4.666,3.579,9.934,3.2,15.2
			l-20.56,20.56l-6.32,6.32C192.072,277.528,186.896,276.338,182.32,273.84z M210.32,328c-5.687,5.425-14.633,5.425-20.32,0
			c-5.594-5.618-5.594-14.702,0-20.32L209.52,288l20.32,20.32L210.32,328z M261.828,276.012c-0.419,0.479-0.869,0.929-1.348,1.348
			l0.24,0.24l-19.52,19.52l-20.32-20.32l19.28-19.76c5.239-5.983,14.337-6.587,20.32-1.348S267.067,270.028,261.828,276.012z"/>
	</g>
</g>
<g>
</g>
<g>
</g>
<g>
</g>
<g>
</g>
<g>
</g>
<g>
</g>
<g>
</g>
<g>
</g>
<g>
</g>
<g>
</g>
<g>
</g>
<g>
</g>
<g>
</g>
<g>
</g>
<g>
</g>
</svg>
