<?xml version="1.0" encoding="iso-8859-1"?>
<!-- Generator: Adobe Illustrator 19.0.0, SVG Export Plug-In . SVG Version: 6.00 Build 0)  -->
<svg version="1.1" id="Capa_1" xmlns="http://www.w3.org/2000/svg" xmlns:xlink="http://www.w3.org/1999/xlink" x="0px" y="0px"
	 viewBox="0 0 412.96 412.96" style="enable-background:new 0 0 412.96 412.96;" xml:space="preserve">
<g>
	<g>
		<path d="M312.8,101.2L312.8,101.2l-64.88,0c-8.085,0-14.64,6.555-14.64,14.64v51.36h-53.6v-51.36c0-8.085-6.555-14.64-14.64-14.64
			h-64.88c-8.085,0-14.64,6.555-14.64,14.64v181.28c0,8.085,6.555,14.64,14.64,14.64h64.88c8.085,0,14.64-6.555,14.64-14.64v-51.28
			h53.6v51.36c0,8.085,6.555,14.64,14.64,14.64h64.88c8.085,0,14.64-6.555,14.64-14.64V115.84
			C327.44,107.755,320.885,101.2,312.8,101.2z M311.44,295.84h-62.16v-58c0-4.418-3.582-8-8-8h-69.6c-4.418,0-8,3.582-8,8v58h-62.16
			V117.2h62.16v58c0,4.418,3.582,8,8,8h69.6c4.418,0,8-3.582,8-8v-58h62.16V295.84z"/>
	</g>
</g>
<g>
	<g>
		<path d="M206.48,0C92.444,0,0,92.444,0,206.48s92.444,206.48,206.48,206.48s206.48-92.444,206.48-206.48
			C412.828,92.499,320.461,0.132,206.48,0z M206.48,396.96v0.08C101.281,397.04,16,311.759,16,206.56S101.281,16.08,206.48,16.08
			c105.168,0,190.436,85.232,190.48,190.4C396.828,311.624,311.624,396.828,206.48,396.96z"/>
	</g>
</g>
<g>
</g>
<g>
</g>
<g>
</g>
<g>
</g>
<g>
</g>
<g>
</g>
<g>
</g>
<g>
</g>
<g>
</g>
<g>
</g>
<g>
</g>
<g>
</g>
<g>
</g>
<g>
</g>
<g>
</g>
</svg>
