<?xml version="1.0" encoding="iso-8859-1"?>
<!-- Generator: Adobe Illustrator 19.0.0, SVG Export Plug-In . SVG Version: 6.00 Build 0)  -->
<svg version="1.1" id="Capa_1" xmlns="http://www.w3.org/2000/svg" xmlns:xlink="http://www.w3.org/1999/xlink" x="0px" y="0px"
	 viewBox="0 0 427.52 427.52" style="enable-background:new 0 0 427.52 427.52;" xml:space="preserve">
<g>
	<g>
		<g>
			<polygon points="343.88,0 343.88,0 343.88,0 			"/>
			<path d="M343.88,0c-20.4,0-36.24,23.52-44.72,49.84H245.8v-2.72c0-4.418-3.582-8-8-8h-48c-4.418,0-8,3.582-8,8v2.72h-62.24
				c-4.418,0-8,3.582-8,8V86.8c0,4.418,3.582,8,8,8h27.28v10.48h-16c-4.418,0-8,3.582-8,8v45.28
				c-42.96,17.6-74.24,69.76-74.24,131.28c0,75.92,47.6,137.68,106,137.68s106.24-61.76,106.24-137.68
				c0-61.52-31.28-113.68-74.16-131.28v-45.2c0-4.418-3.582-8-8-8h-16V94.8h19.12v2.72c0,4.418,3.582,8,8,8h48c4.418,0,8-3.582,8-8
				V94.8h46.8c1.52,32,19.52,49.84,51.36,49.84c34.96,0,34.96-47.04,34.96-72S378.84,0,343.88,0z M154.76,411.52
				c-48,0-86.64-50.32-89.76-113.68h179.52C241.48,361.2,202.44,411.52,154.76,411.52z M244.52,281.84H65
				c3.04-63.36,42.08-113.68,89.76-113.68S241.48,218.48,244.52,281.84z M170.6,121.36v32.48c-10.541-2.318-21.459-2.318-32,0
				v-32.48H170.6z M181.8,78.88l-54.32-0.08V65.84h54.32V78.88z M229.8,89.6h-32V55.12h32V89.6z M293,78.64h-47.2V65.6H295
				C294.12,70,293.4,74.4,293,78.64z M343.88,128.72l0.08-0.24c-24,0-35.68-12.16-35.68-38.24c0-34.08,19.36-74.4,35.68-74.4
				c13.52,0,18.96,16,18.96,56S357.32,128.72,343.88,128.72z"/>
		</g>
	</g>
</g>
<g>
</g>
<g>
</g>
<g>
</g>
<g>
</g>
<g>
</g>
<g>
</g>
<g>
</g>
<g>
</g>
<g>
</g>
<g>
</g>
<g>
</g>
<g>
</g>
<g>
</g>
<g>
</g>
<g>
</g>
</svg>
