<?xml version="1.0" encoding="iso-8859-1"?>
<!-- Generator: Adobe Illustrator 19.0.0, SVG Export Plug-In . SVG Version: 6.00 Build 0)  -->
<svg version="1.1" id="Capa_1" xmlns="http://www.w3.org/2000/svg" xmlns:xlink="http://www.w3.org/1999/xlink" x="0px" y="0px"
	 viewBox="0 0 397.6 397.6" style="enable-background:new 0 0 397.6 397.6;" xml:space="preserve">
<g>
	<g>
		<path d="M382,17.36H16c-8.837,0-16,7.163-16,16V322.4c0,8.837,7.163,16,16,16h24v25.84c0,8.837,7.163,16,16,16h42.8
			c8.837,0,16-7.163,16-16V338.4h168v25.84c0,8.837,7.163,16,16,16h42.8c8.837,0,16-7.163,16-16V338.4h24c8.837,0,16-7.163,16-16
			V33.36C397.603,24.677,390.68,17.577,382,17.36z M99.12,364.24h-42.8V338.4h42.8V364.24z M341.6,364.24h-42.8V338.4h42.8V364.24z
			 M382,322.4h-40.4H16V33.36h366V322.4z"/>
	</g>
</g>
<g>
	<g>
		<path d="M341.6,54.8H56.32c-8.837,0-16,7.163-16,16v182.08c0,8.837,7.163,16,16,16H341.6c8.837,0,16-7.163,16-16V70.8
			C357.6,61.963,350.437,54.8,341.6,54.8z M341.44,252.88H56.32v-82.96h60.16l26.48,64.96c1.238,3.014,4.181,4.976,7.44,4.96h0.56
			c3.466-0.248,6.375-2.705,7.2-6.08l27.2-111.28l22.4,75.28c1.264,4.234,5.721,6.641,9.955,5.376
			c2.441-0.729,4.389-2.577,5.245-4.976l22.64-62.56l24,30.64c1.527,1.932,3.858,3.053,6.32,3.04h65.52V252.88z M341.6,153.36H280
			l-30.64-38.88c-2.72-3.482-7.748-4.099-11.229-1.379c-1.196,0.934-2.101,2.189-2.611,3.619L216.24,170l-24-80
			c-1.056-3.498-4.349-5.836-8-5.68c-3.617,0.075-6.733,2.568-7.6,6.08l-28.08,115.68L129.2,158.8
			c-1.238-3.014-4.181-4.976-7.44-4.96H56.32V70.8H341.6V153.36z"/>
	</g>
</g>
<g>
</g>
<g>
</g>
<g>
</g>
<g>
</g>
<g>
</g>
<g>
</g>
<g>
</g>
<g>
</g>
<g>
</g>
<g>
</g>
<g>
</g>
<g>
</g>
<g>
</g>
<g>
</g>
<g>
</g>
</svg>
