<?xml version="1.0" encoding="iso-8859-1"?>
<!-- Generator: Adobe Illustrator 19.0.0, SVG Export Plug-In . SVG Version: 6.00 Build 0)  -->
<svg version="1.1" id="Capa_1" xmlns="http://www.w3.org/2000/svg" xmlns:xlink="http://www.w3.org/1999/xlink" x="0px" y="0px"
	 viewBox="0 0 452.48 452.48" style="enable-background:new 0 0 452.48 452.48;" xml:space="preserve">
<g>
	<g>
		<path d="M444.48,217.759L444.48,217.759h-35.2c2.927-9.027,5.331-18.216,7.2-27.52c8.64-43.28,2.88-78.64-16.56-102.48
			c-18.311-20.961-45.153-32.469-72.96-31.28c-40.563,0.346-79.035,18.053-105.68,48.64c-26.645-30.587-65.117-48.294-105.68-48.64
			c-27.945-1.312-54.96,10.207-73.36,31.28c-19.52,24-25.2,59.2-16.56,102.48c2.031,9.505,4.622,18.881,7.76,28.08H8
			c-4.418,0-8,3.582-8,8s3.582,8,8,8h31.36c48.8,120,178.16,161.04,179.6,161.44c1.513,0.458,3.127,0.458,4.64,0
			c1.44-0.4,131.2-41.44,179.84-162h41.04c4.418,0,8-3.582,8-8S448.898,217.759,444.48,217.759z M221.28,379.679L221.28,379.679
			c-16.96-5.84-120.72-45.2-164.64-145.36h87.12l26.48,65.04c1.227,2.987,4.13,4.944,7.36,4.96h0.64
			c3.466-0.248,6.375-2.705,7.2-6.08l27.2-111.28l22.4,75.28c0.998,3.298,3.996,5.586,7.44,5.68c3.543,0.209,6.8-1.94,8-5.28
			l22.64-62.56l24,30.64c1.509,1.91,3.806,3.029,6.24,3.04h82.88C342.32,334.159,238.16,373.839,221.28,379.679z M400.8,187.119
			c-2.109,10.425-4.943,20.69-8.48,30.72h-85.04l-30.64-38.88c-2.72-3.482-7.748-4.099-11.229-1.379
			c-1.196,0.934-2.101,2.189-2.611,3.619l-19.28,53.12l-24-80c-1.056-3.498-4.349-5.836-8-5.68c-3.617,0.075-6.733,2.568-7.6,6.08
			l-28.08,115.76l-19.36-47.2c-1.238-3.014-4.181-4.976-7.44-4.96h-98.8c-3.556-10.188-6.39-20.614-8.48-31.2h0
			c-8-38.4-3.12-69.2,13.28-89.2c15.297-17.206,37.564-26.56,60.56-25.44c39.149,0.099,75.917,18.809,99.04,50.4
			c2.464,3.667,7.435,4.642,11.102,2.178c0.86-0.578,1.6-1.318,2.178-2.178c23.123-31.591,59.891-50.301,99.04-50.4
			c22.996-1.12,45.263,8.234,60.56,25.44C403.52,117.919,408.48,148.719,400.8,187.119z"/>
	</g>
</g>
<g>
</g>
<g>
</g>
<g>
</g>
<g>
</g>
<g>
</g>
<g>
</g>
<g>
</g>
<g>
</g>
<g>
</g>
<g>
</g>
<g>
</g>
<g>
</g>
<g>
</g>
<g>
</g>
<g>
</g>
</svg>
