<?xml version="1.0" encoding="iso-8859-1"?>
<!-- Generator: Adobe Illustrator 19.0.0, SVG Export Plug-In . SVG Version: 6.00 Build 0)  -->
<svg version="1.1" id="Capa_1" xmlns="http://www.w3.org/2000/svg" xmlns:xlink="http://www.w3.org/1999/xlink" x="0px" y="0px"
	 viewBox="0 0 457.36 457.36" style="enable-background:new 0 0 457.36 457.36;" xml:space="preserve">
<g>
	<g>
		<path d="M192.88,185.592h-16.8v-16.8c0-5.744-4.656-10.4-10.4-10.4h-28.64c-5.744,0-10.4,4.656-10.4,10.4v16.8h-16.8
			c-5.744,0-10.4,4.656-10.4,10.4v28.72c0,5.744,4.656,10.4,10.4,10.4h16.8v16.8c0,5.744,4.656,10.4,10.4,10.4h28.64
			c5.744,0,10.4-4.656,10.4-10.4v-16.8h16.8c5.744,0,10.4-4.656,10.4-10.4v-28.72C203.28,190.249,198.624,185.592,192.88,185.592z
			 M187.28,219.032h-19.2c-4.418,0-8,3.582-8,8v19.2h-17.44v-19.2c0-4.418-3.582-8-8-8h-19.2v-17.44h19.2c4.418,0,8-3.582,8-8v-19.2
			h17.44v19.2c0,4.418,3.582,8,8,8h19.2V219.032z"/>
	</g>
</g>
<g>
	<g>
		<g>
			<polygon points="151.36,128.312 151.36,128.312 151.36,128.312 			"/>
			<path d="M151.36,128.312c-45.287,0.044-81.964,36.793-81.92,82.08c0.044,45.287,36.793,81.964,82.08,81.92
				c45.256-0.044,81.92-36.744,81.92-82C233.352,165.03,196.642,128.356,151.36,128.312z M151.681,276.712
				c-0.107,0.001-0.214,0.001-0.321,0.001v-0.32c-36.451-0.044-65.964-29.629-65.92-66.08s29.629-65.964,66.08-65.92
				c36.388,0.044,65.876,29.532,65.92,65.92C217.617,246.807,188.175,276.535,151.681,276.712z"/>
		</g>
	</g>
</g>
<g>
	<g>
		<path d="M440.8,236.712c-0.027,0-0.053,0-0.08,0h-21.36v-58.56c-0.044-9.128-7.432-16.516-16.56-16.56h-18.72
			c-4.239-17.43-21.806-28.123-39.236-23.884c-11.801,2.87-21.014,12.084-23.884,23.884H302.8v-61.44
			c0-9.146-7.414-16.56-16.56-16.56H16.56C7.414,83.592,0,91.007,0,100.152v220.32c0,9.146,7.414,16.56,16.56,16.56h28.08
			c4.414,24.301,27.692,40.422,51.992,36.008c18.331-3.33,32.678-17.676,36.008-36.008h153.6c3.028-0.021,5.99-0.879,8.56-2.48
			c2.571,1.597,5.533,2.455,8.56,2.48h21.28c4.414,24.301,27.692,40.422,51.992,36.008c18.331-3.33,32.678-17.676,36.008-36.008
			h28.16c9.146,0,16.56-7.414,16.56-16.56v-67.2C457.36,244.126,449.946,236.712,440.8,236.712z M88.48,357.832h0.094
			c-0.005,0-0.009,0-0.014,0C88.534,357.833,88.507,357.832,88.48,357.832z M88.651,357.831C72.821,357.793,60,344.951,60,329.112
			c0-15.862,12.858-28.72,28.72-28.72c15.862,0,28.72,12.858,28.72,28.72C117.396,344.988,104.515,357.825,88.651,357.831z
			 M286.8,320.472c0,0.309-0.251,0.56-0.56,0.56h-153.6c-4.414-24.301-27.692-40.422-51.992-36.008
			c-18.331,3.33-32.678,17.676-36.008,36.008H16.56c-0.309,0-0.56-0.251-0.56-0.56v-220.32c0-0.309,0.251-0.56,0.56-0.56h269.68
			c0.309,0,0.56,0.251,0.56,0.56V320.472z M352.56,152.872l0.16,0.08c6.094-0.018,11.71,3.297,14.64,8.64h-29.44
			C340.829,156.218,346.449,152.87,352.56,152.872z M368.56,357.832v-0.08c-15.862,0-28.72-12.858-28.72-28.72
			s12.858-28.72,28.72-28.72c15.862,0,28.72,12.858,28.72,28.72C397.28,344.907,384.435,357.788,368.56,357.832z M441.28,320.392
			c0,0.309-0.251,0.56-0.56,0.56h-28.08c-4.414-24.301-27.692-40.422-51.992-36.008c-18.331,3.33-32.678,17.676-36.008,36.008
			h-21.28c-0.309,0-0.56-0.251-0.56-0.56v-142.24c0-0.309,0.251-0.56,0.56-0.56h99.44c0.309,0,0.56,0.251,0.56,0.56v66.56
			c0,4.418,3.582,8,8,8h29.36c0.309,0,0.56,0.251,0.56,0.56V320.392z"/>
	</g>
</g>
<g>
	<g>
		<path d="M385.28,184.792h-65.44c-4.418,0-8,3.582-8,8v51.92c0,4.418,3.582,8,8,8h65.44c4.418,0,8-3.582,8-8v-51.92
			C393.28,188.374,389.698,184.792,385.28,184.792z M377.28,237.032h-49.44v-36.24h49.44V237.032z"/>
	</g>
</g>
<g>
</g>
<g>
</g>
<g>
</g>
<g>
</g>
<g>
</g>
<g>
</g>
<g>
</g>
<g>
</g>
<g>
</g>
<g>
</g>
<g>
</g>
<g>
</g>
<g>
</g>
<g>
</g>
<g>
</g>
</svg>
